<mxfile host="app.diagrams.net" modified="2021-05-28T06:49:16.694Z" agent="5.0 (Windows NT 10.0; Win64; x64) AppleWebKit/537.36 (KHTML, like Gecko) Chrome/90.0.4430.212 Safari/537.36" etag="TQDtyIg6-glkZa4qjgvy" version="14.7.2" type="github">
  <diagram id="FyzNEP52wKAkibR-cV9b" name="Page-1">
    <mxGraphModel dx="2062" dy="1160" grid="0" gridSize="10" guides="1" tooltips="1" connect="1" arrows="1" fold="1" page="1" pageScale="1" pageWidth="3300" pageHeight="4681" math="0" shadow="0">
      <root>
        <mxCell id="0" />
        <mxCell id="1" parent="0" />
        <mxCell id="pH1emtbNh5G4_gBEcOGy-2" value="&lt;font style=&quot;font-size: 24px&quot;&gt;BUS BRIDGE&lt;/font&gt;" style="rounded=0;whiteSpace=wrap;html=1;" vertex="1" parent="1">
          <mxGeometry x="739" y="373" width="414" height="184" as="geometry" />
        </mxCell>
        <mxCell id="pH1emtbNh5G4_gBEcOGy-4" value="" style="shape=singleArrow;direction=south;whiteSpace=wrap;html=1;" vertex="1" parent="1">
          <mxGeometry x="759" y="296" width="29" height="77" as="geometry" />
        </mxCell>
        <mxCell id="pH1emtbNh5G4_gBEcOGy-5" value="" style="shape=singleArrow;direction=south;whiteSpace=wrap;html=1;" vertex="1" parent="1">
          <mxGeometry x="1086" y="296" width="29" height="77" as="geometry" />
        </mxCell>
        <mxCell id="pH1emtbNh5G4_gBEcOGy-6" value="" style="shape=singleArrow;direction=south;whiteSpace=wrap;html=1;" vertex="1" parent="1">
          <mxGeometry x="931.5" y="557" width="29" height="77" as="geometry" />
        </mxCell>
        <mxCell id="pH1emtbNh5G4_gBEcOGy-7" value="&lt;font style=&quot;font-size: 18px&quot;&gt;SRAM-LIKE INTERFACE&lt;br&gt;FROM IF STAGE&lt;br&gt;(INSTRUCTION FEATCH)&lt;/font&gt;" style="text;html=1;strokeColor=none;fillColor=none;align=center;verticalAlign=middle;whiteSpace=wrap;rounded=0;" vertex="1" parent="1">
          <mxGeometry x="667" y="232" width="232" height="50" as="geometry" />
        </mxCell>
        <mxCell id="pH1emtbNh5G4_gBEcOGy-8" value="&lt;font style=&quot;font-size: 18px&quot;&gt;SRAM-LIKE INTERFACE&lt;br&gt;FROM MEM STAGE&lt;br&gt;(DATA READ OR WRITE)&lt;/font&gt;" style="text;html=1;strokeColor=none;fillColor=none;align=center;verticalAlign=middle;whiteSpace=wrap;rounded=0;" vertex="1" parent="1">
          <mxGeometry x="993" y="232" width="232" height="50" as="geometry" />
        </mxCell>
        <mxCell id="pH1emtbNh5G4_gBEcOGy-9" value="&lt;font style=&quot;font-size: 18px&quot;&gt;AXI4 INTERFACE&lt;/font&gt;" style="text;html=1;strokeColor=none;fillColor=none;align=center;verticalAlign=middle;whiteSpace=wrap;rounded=0;" vertex="1" parent="1">
          <mxGeometry x="830" y="630" width="232" height="50" as="geometry" />
        </mxCell>
      </root>
    </mxGraphModel>
  </diagram>
</mxfile>
